<?xml version="1.0" encoding="UTF-8"?>
<svg id="Layer_1" xmlns="http://www.w3.org/2000/svg" version="1.1" viewBox="0 0 1505.51 1080">
  <!-- Generator: Adobe Illustrator 30.1.0, SVG Export Plug-In . SVG Version: 2.1.1 Build 136)  -->
  <defs>
    <style>
      .st0 {
        fill: none;
      }

      .st1 {
        fill: #1b354c;
      }

      .st2 {
        fill: #142c3d;
      }

      .st3 {
        fill: #007bff;
      }

      .st4 {
        fill: #0c1921;
      }
    </style>
  </defs>
  <g>
    <path class="st0" d="M558.59,312.78c-1.16-3.06-2.48-5.97-4.01-8.82l4.01,8.82Z"/>
    <path class="st0" d="M825.21,177.06c-.59,1.06-1.23,2.11-1.81,3.17.59-1.06,1.17-2.11,1.76-3.17h.06Z"/>
    <path class="st0" d="M1089.97,280.6c0,45.93-35.01,83.71-79.68,87.88h-98.95l-79.1-176.16h169.67c48.59,0,88.06,39.54,88.06,88.29Z"/>
    <path class="st0" d="M574.68,75.58h-4.54l2.27,5.07,2.27-5.07Z"/>
    <path class="st0" d="M1001.9,368.9c2.85,0,5.64-.16,8.38-.42h-16.76c2.74.26,5.53.42,8.38.42Z"/>
    <path class="st3" d="M467.79,645.04c0,46.29-37.45,83.82-83.66,83.82-35.92,0-66.47-22.72-78.32-54.58-3.4-9.12-5.34-18.95-5.34-29.25,0-35.69,22.28-66.07,53.62-78.17,9.33-3.61,19.44-5.67,30.04-5.67,46.21,0,83.66,37.53,83.66,83.84Z"/>
    <rect class="st1" x="661.8" y="75.58" height="0"/>
    <path class="st1" d="M1006.01,192.31c2.52-5.28,5.27-10.44,8.2-15.43l6.97,15.43h-15.16Z"/>
    <path class="st1" d="M1206.53,280.6c0,15.72-1.76,31.03-5.09,45.76-3.34,14.67-8.26,28.8-14.58,42.12-32.85,69.28-103.34,117.21-184.95,117.21-3.28,0-6.5-.06-9.72-.29-6.73-.23-13.47-.94-19.96-1.88l-.59-1.29c2.46.47,4.98.94,7.49,1.29l-51.4-114.57-.23-.47h66.04c2.75.23,5.5.41,8.37.41s5.62-.18,8.37-.41c44.67-4.17,79.68-41.94,79.68-87.88,0-48.75-39.46-88.29-88.06-88.29h-153.51l-52.17-116.27h-16.33l45.26,101.02c-.59,1.06-1.17,2.11-1.76,3.17.59-1.06,1.23-2.11,1.81-3.17l6.85,15.25.18.47,79.1,176.16,52.63,117.21,111.12,247.44h-117.86l-111.36-247.91-52.63-117.21-79.1-176.16-52.34-116.74h340.1c81.5,0,151.81,47.69,184.72,116.74,12.76,26.75,19.91,56.67,19.91,88.29Z"/>
    <path class="st2" d="M825.27,176.88c0,.06-.06.12-.06.18h-.06c.06-.06.06-.12.12-.18Z"/>
    <path class="st2" d="M832.24,192.31h-.18l-6.85-15.25c0-.06.06-.12.06-.18l6.97,15.43Z"/>
    <polygon class="st2" points="1075.33 733.59 1075.09 733.59 963.97 486.15 911.34 368.95 832.24 192.78 832.06 192.31 832.24 192.31 911.34 368.48 962.22 481.81 963.97 485.68 1075.33 733.59"/>
    <g>
      <path class="st4" d="M971.64,482.22l.59,1.29c-3.4-.47-6.73-1.06-9.95-1.7l-50.94-113.34h16.16l.23.47,51.4,114.57c-2.52-.35-5.04-.82-7.49-1.29Z"/>
      <path class="st4" d="M848.4,192.31h-16.16l-6.97-15.43c-.06.06-.06.12-.12.18l-45.26-101.02h16.33l52.17,116.27Z"/>
    </g>
    <path class="st1" d="M1006.02,192.3h15.13l-6.96-15.43c-2.9,5.02-5.64,10.15-8.17,15.43Z"/>
    <path class="st1" d="M865.61,733.59h-118.09l-111.3-247.91-52.63-117.21-24.88-55.38-.12-.29c-1.17-3.11-2.46-5.98-3.98-8.86l-.29-.59c-12.41-22.82-36.53-38.31-64.29-38.31h-.41l23.77-52.91,8.9-19.83,50.12-111.64,50.18,111.64,79.1,176.16,52.63,117.21,111.3,247.91Z"/>
  </g>
  <g>
    <path class="st4" d="M81.9,1031.67l59.91-133.4h24.35l60.1,133.4h-26.06l-51.35-120.25h9.89l-51.54,120.25h-25.3ZM109.48,1000.8l6.85-19.44h71.7l6.66,19.44h-85.21Z"/>
    <path class="st4" d="M281.23,1031.67v-133.4h24.73v112.44h69.61v20.96h-94.34Z"/>
    <path class="st4" d="M433.2,1031.67v-133.4h24.73v112.44h69.61v20.96h-94.34Z"/>
    <path class="st4" d="M675.7,1031.67v-133.4h54.78c11.79,0,21.9,1.88,30.34,5.62,8.43,3.75,14.93,9.18,19.5,16.3,4.57,7.12,6.85,15.63,6.85,25.54s-2.28,18.17-6.85,25.16c-4.57,6.99-11.06,12.39-19.5,16.2-8.43,3.81-18.54,5.72-30.34,5.72h-40.89l10.84-11.05v49.93h-24.73ZM700.42,984.41l-10.84-12.01h39.75c10.9,0,19.12-2.35,24.63-7.05,5.52-4.7,8.27-11.25,8.27-19.63s-2.76-14.89-8.27-19.54c-5.51-4.63-13.73-6.95-24.63-6.95h-39.75l10.84-12.2v77.37ZM762.81,1031.67l-33.66-48.41h26.44l33.85,48.41h-26.63Z"/>
    <path class="st4" d="M852.77,1031.67v-133.4h24.73v133.4h-24.73Z"/>
    <path class="st4" d="M1013.68,1033.57c-10.4,0-19.94-1.68-28.62-5.05-8.69-3.36-16.26-8.16-22.73-14.39-6.47-6.22-11.48-13.47-15.03-21.73-3.55-8.26-5.33-17.4-5.33-27.44s1.78-19.18,5.33-27.44c3.55-8.26,8.59-15.5,15.12-21.73,6.53-6.22,14.14-11.02,22.82-14.39,8.68-3.37,18.35-5.05,29.01-5.05s21.27,1.84,30.34,5.53c9.06,3.69,16.7,9.09,22.92,16.2l-15.6,15.24c-5.2-5.21-10.81-9.05-16.83-11.53-6.02-2.48-12.65-3.72-19.88-3.72s-13.6,1.14-19.49,3.43c-5.9,2.29-11,5.53-15.31,9.72-4.31,4.19-7.67,9.15-10.08,14.87-2.41,5.72-3.61,12-3.61,18.87s1.2,12.99,3.61,18.77c2.41,5.78,5.77,10.77,10.08,14.96,4.31,4.19,9.38,7.43,15.22,9.72,5.83,2.29,12.3,3.43,19.4,3.43,6.59,0,12.96-1.05,19.11-3.15,6.15-2.1,12.01-5.62,17.6-10.58l13.88,18.49c-6.85,5.59-14.83,9.81-23.97,12.67-9.13,2.86-18.45,4.29-27.96,4.29ZM1042.4,1013.37v-49.74h23.2v52.98l-23.2-3.24Z"/>
    <path class="st4" d="M1161.08,1031.67h-24.73v-133.4h24.73v133.4ZM1231.84,974.5h-72.66v-21.15h72.66v21.15ZM1229.94,898.27h24.54v133.4h-24.54v-133.4Z"/>
    <path class="st4" d="M1355.47,1031.67v-112.44h-44.13v-20.96h112.98v20.96h-44.13v112.44h-24.73Z"/>
  </g>
</svg>