<?xml version="1.0" encoding="UTF-8"?>
<svg id="Layer_2" xmlns="http://www.w3.org/2000/svg" version="1.1" viewBox="0 0 1505.51 1080">
  <!-- Generator: Adobe Illustrator 30.1.0, SVG Export Plug-In . SVG Version: 2.1.1 Build 136)  -->
  <defs>
    <style>
      .st0 {
        fill: #fff;
      }

      .st1 {
        fill: none;
      }

      .st2 {
        fill: #1b354c;
      }

      .st3 {
        fill: #142c3d;
      }

      .st4 {
        fill: #007bff;
      }

      .st5 {
        fill: #0c1921;
      }
    </style>
  </defs>
  <g>
    <path class="st1" d="M561.41,308.9c-1.17-3.09-2.5-6.03-4.05-8.91l4.05,8.91Z"/>
    <path class="st1" d="M830.58,171.88c-.59,1.07-1.24,2.13-1.83,3.2.59-1.07,1.18-2.13,1.77-3.2h.06Z"/>
    <path class="st1" d="M1097.86,276.41c0,46.37-35.35,84.51-80.44,88.72h-99.89l-79.85-177.85h171.29c49.06,0,88.9,39.92,88.9,89.13Z"/>
    <path class="st1" d="M577.65,69.43h-4.58l2.29,5.12,2.29-5.12Z"/>
    <path class="st1" d="M1008.96,365.55c2.87,0,5.69-.16,8.46-.43h-16.92c2.77.27,5.59.43,8.46.43Z"/>
    <path class="st4" d="M469.75,644.33c0,46.73-37.8,84.63-84.46,84.63-36.26,0-67.11-22.94-79.07-55.1-3.43-9.21-5.39-19.13-5.39-29.53,0-36.03,22.5-66.7,54.13-78.92,9.42-3.64,19.63-5.72,30.33-5.72,46.66,0,84.46,37.89,84.46,84.64Z"/>
    <rect class="st2" x="665.61" y="69.43" height="0"/>
    <path class="st2" d="M1013.1,187.28c2.54-5.33,5.32-10.54,8.28-15.58l7.03,15.58h-15.31Z"/>
    <path class="st0" d="M1215.54,276.41c0,15.87-1.77,31.33-5.14,46.19-3.37,14.81-8.33,29.08-14.72,42.52-33.16,69.94-104.32,118.33-186.72,118.33-3.31,0-6.56-.06-9.81-.3-6.8-.24-13.59-.95-20.16-1.9l-.59-1.3c2.48.47,5.02.95,7.57,1.3l-51.9-115.66-.24-.47h66.67c2.78.24,5.56.41,8.45.41s5.67-.18,8.45-.41c45.1-4.21,80.44-42.35,80.44-88.72,0-49.21-39.84-89.13-88.9-89.13h-154.98l-52.66-117.38h-16.49l45.69,101.98c-.59,1.07-1.18,2.13-1.77,3.2.59-1.07,1.24-2.13,1.83-3.2l6.92,15.4.18.47,79.85,177.85,53.14,118.33,112.18,249.8h-118.98l-112.42-250.28-53.14-118.33-79.85-177.85-52.84-117.85h343.35c82.28,0,153.26,48.15,186.48,117.85,12.89,27.01,20.1,57.21,20.1,89.13Z"/>
    <path class="st3" d="M830.64,171.7c0,.06-.06.12-.06.18h-.06c.06-.06.06-.12.12-.18Z"/>
    <path class="st3" d="M837.68,187.28h-.18l-6.92-15.4c0-.06.06-.12.06-.18l7.03,15.58Z"/>
    <polygon class="st3" points="1083.09 733.73 1082.85 733.73 970.67 483.93 917.53 365.6 837.68 187.75 837.5 187.28 837.68 187.28 917.53 365.13 968.89 479.54 970.67 483.45 1083.09 733.73"/>
    <g>
      <path class="st5" d="M978.41,479.96l.59,1.3c-3.43-.47-6.8-1.07-10.05-1.72l-51.42-114.42h16.31l.24.47,51.9,115.66c-2.54-.35-5.08-.83-7.57-1.3Z"/>
      <path class="st5" d="M853.99,187.28h-16.31l-7.03-15.58c-.06.06-.06.12-.12.18l-45.69-101.98h16.49l52.66,117.38Z"/>
    </g>
    <path class="st0" d="M871.37,733.73h-119.22l-112.36-250.28-53.14-118.33-25.12-55.91-.12-.3c-1.18-3.14-2.48-6.04-4.02-8.94l-.3-.59c-12.53-23.04-36.88-38.67-64.9-38.67h-.41l24-53.42,8.98-20.02,50.6-112.7,50.65,112.7,79.85,177.85,53.14,118.33,112.36,250.28Z"/>
  </g>
  <g>
    <path class="st0" d="M80.17,1034.65l60.49-134.68h24.58l60.68,134.68h-26.31l-51.84-121.4h9.98l-52.04,121.4h-25.54ZM108.01,1003.48l6.91-19.63h72.39l6.72,19.63h-86.02Z"/>
    <path class="st0" d="M281.4,1034.65v-134.68h24.96v113.51h70.28v21.16h-95.24Z"/>
    <path class="st0" d="M434.82,1034.65v-134.68h24.96v113.51h70.28v21.16h-95.24Z"/>
    <path class="st0" d="M679.64,1034.65v-134.68h55.3c11.91,0,22.11,1.89,30.63,5.68,8.51,3.79,15.07,9.27,19.68,16.45,4.61,7.18,6.91,15.77,6.91,25.78s-2.3,18.34-6.91,25.4c-4.61,7.06-11.17,12.51-19.68,16.35-8.51,3.85-18.72,5.77-30.63,5.77h-41.28l10.94-11.16v50.41h-24.96ZM704.6,986.94l-10.94-12.12h40.13c11.01,0,19.3-2.37,24.87-7.12,5.57-4.75,8.35-11.35,8.35-19.82s-2.78-15.04-8.35-19.72c-5.57-4.68-13.86-7.02-24.87-7.02h-40.13l10.94-12.31v78.11ZM767.59,1034.65l-33.99-48.87h26.69l34.18,48.87h-26.88Z"/>
    <path class="st0" d="M858.41,1034.65v-134.68h24.96v134.68h-24.96Z"/>
    <path class="st0" d="M1020.85,1036.57c-10.5,0-20.13-1.7-28.9-5.1-8.77-3.39-16.42-8.24-22.95-14.53-6.53-6.28-11.58-13.59-15.17-21.93-3.58-8.33-5.38-17.57-5.38-27.7s1.79-19.37,5.38-27.71c3.58-8.34,8.67-15.65,15.27-21.93,6.59-6.28,14.27-11.12,23.04-14.53,8.76-3.4,18.53-5.1,29.28-5.1s21.47,1.86,30.63,5.58c9.15,3.72,16.86,9.17,23.14,16.36l-15.75,15.39c-5.25-5.26-10.92-9.14-16.99-11.64-6.08-2.5-12.77-3.75-20.07-3.75s-13.73,1.15-19.68,3.46c-5.95,2.31-11.11,5.58-15.46,9.81-4.35,4.23-7.75,9.24-10.18,15.01-2.43,5.77-3.65,12.12-3.65,19.05s1.22,13.11,3.65,18.95c2.43,5.84,5.82,10.87,10.18,15.1,4.35,4.23,9.47,7.5,15.36,9.81,5.88,2.31,12.41,3.46,19.58,3.46,6.66,0,13.09-1.06,19.3-3.18,6.21-2.12,12.13-5.68,17.76-10.68l14.01,18.66c-6.91,5.64-14.98,9.91-24.19,12.79-9.22,2.89-18.62,4.33-28.23,4.33ZM1049.85,1016.18v-50.22h23.42v53.49l-23.42-3.27Z"/>
    <path class="st0" d="M1169.66,1034.65h-24.96v-134.68h24.96v134.68ZM1241.09,976.93h-73.35v-21.36h73.35v21.36ZM1239.17,899.97h24.77v134.68h-24.77v-134.68Z"/>
    <path class="st0" d="M1365.9,1034.65v-113.51h-44.55v-21.16h114.06v21.16h-44.55v113.51h-24.96Z"/>
  </g>
</svg>