<?xml version="1.0" encoding="UTF-8"?>
<svg id="Capa_1" xmlns="http://www.w3.org/2000/svg" version="1.1" viewBox="0 0 512 512">
  <!-- Generator: Adobe Illustrator 30.1.0, SVG Export Plug-In . SVG Version: 2.1.1 Build 136)  -->
  <path d="M499.92,436.3l-91.49-91.51c-17.03,24.99-38.65,46.61-63.64,63.64l91.5,91.5c8.77,8.77,18.02,12.07,29.54,12.07s23.04-4.38,31.82-13.15c17.55-17.55,19.82-45,2.27-62.55Z"/>
  <path d="M210,90c-66.17,0-120,53.83-120,120s53.83,120,120,120,120-53.83,120-120-53.83-120-120-120Z"/>
  <path d="M210,0C94.2,0,0,94.2,0,210s94.2,210,210,210,210-94.2,210-210S325.8,0,210,0ZM210,360c-82.71,0-150-67.29-150-150S127.29,60,210,60s150,67.29,150,150-67.3,150-150,150Z"/>
</svg>