<?xml version="1.0" encoding="UTF-8"?>
<svg id="Layer_1" xmlns="http://www.w3.org/2000/svg" version="1.1" viewBox="0 0 316.83 288.48">
  <!-- Generator: Adobe Illustrator 30.1.0, SVG Export Plug-In . SVG Version: 2.1.1 Build 136)  -->
  <path d="M140.73,238.91H21.2v26.99h133.02v-13.49c0-7.42-6.08-13.49-13.49-13.49ZM34.41,230.08h106.32c4.36,0,8.45,1.27,11.89,3.45-1.27-5.99-3.49-11.49-6.45-16.14-4.43-6.95-10.53-11.92-17.55-13.55H34.41v26.24ZM176.55,230.08h105.54v-26.24h-94.21c-7.02,1.63-13.12,6.6-17.57,13.55-3.08,4.81-5.33,10.53-6.58,16.77,3.63-2.56,8.04-4.08,12.81-4.08ZM296.1,238.91h-119.55c-7.41,0-13.49,6.08-13.49,13.49v13.49h133.04v-26.99ZM118.03,65.71c7.9,11.07,10.78,25.18,7.52,38.75,15.3,18.63,43.43,20.54,60.94,3,16.17-16.16,16.17-42.46,0-58.62-14.69-14.71-37.87-16.21-54.3-3.47-6.61,5.13-11.61,12.21-14.17,20.34ZM94.09,78.56c-8.15-8.15-21.36-8.15-29.51,0-8.15,8.15-8.15,21.36,0,29.51,8.15,8.15,21.36,8.15,29.51,0,8.15-8.15,8.16-21.36,0-29.51ZM79.34,63.61c16.39,0,29.68,13.3,29.68,29.68s-13.3,29.7-29.68,29.7-29.7-13.3-29.7-29.7,13.3-29.68,29.7-29.68ZM87.9,171.12c-7.7-7.7-20.7-2.07-20.7,8.56v15.33h24.26v-15.33c0-3.33-1.36-6.37-3.56-8.56ZM58.37,195.02v-15.33c0-5.86,2.43-11.19,6.36-15.01v-26.13c-19.46-6.27-32.94-24.43-32.94-45.23,0-26.24,21.29-47.52,47.54-47.52,12.37,0,23.64,4.72,32.1,12.48,7.83-18.16,25.79-30.35,45.97-30.35,27.52,0,50.04,22.5,50.04,50.04,0,13.78-5.2,25.97-14.17,35.21h12.28c20.18,0,36.68,16.49,36.68,36.68v45.18h44.27c2.43,0,4.39,1.97,4.39,4.41v30.65h9.62c2.43,0,4.41,1.99,4.41,4.41v35.82c0,2.43-1.99,4.39-4.41,4.39H16.78c-2.45,0-4.41-1.97-4.41-4.39v-35.82c0-2.43,1.97-4.41,4.41-4.41h8.8v-30.65c0-2.45,1.97-4.41,4.41-4.41h28.39ZM93.92,164.67c3.93,3.83,6.36,9.15,6.36,15.01v15.33h14.22v-33.55c0-2.45,1.99-4.41,4.41-4.41s4.41,1.97,4.41,4.41v33.55c1.57,0,5.68-.16,6.97.18,9.47,2.12,17.55,8.52,23.27,17.48,1.8,2.81,3.36,5.88,4.67,9.15,1.29-3.27,2.86-6.34,4.65-9.15,5.72-8.95,13.8-15.35,23.29-17.48,1.2-.32,3.84-.18,5.27-.18v-33.55c0-2.45,1.99-4.41,4.41-4.41s4.41,1.97,4.41,4.41v33.55h33.12v-45.18c0-15.3-12.53-27.84-27.84-27.84h-23.72c-7.24,4.07-15.57,6.42-24.43,6.42-8.05,0-15.67-1.93-22.46-5.36-.66-.34-1.31-.7-1.95-1.05h-15.76c-5.83,7.69-13.9,13.53-23.3,16.55v26.12h0ZM79.34,158.73c1.99,0,3.93.27,5.76.81v-24.33h.02c0-1.99,1.36-3.79,3.36-4.27,8.58-2.07,16.03-7,21.32-13.75,12.06-15.35,10.78-37.39-3.09-51.26-15.12-15.12-39.62-15.12-54.75,0-13.83,13.83-15.18,35.89-3.09,51.26,5.24,6.65,12.57,11.54,20.98,13.66,2.11.34,3.72,2.16,3.72,4.36v24.33c1.82-.54,3.76-.81,5.76-.81Z"/>
</svg>