<?xml version="1.0" encoding="UTF-8"?>
<svg id="Layer_1" xmlns="http://www.w3.org/2000/svg" version="1.1" viewBox="0 0 159.15 122.66">
  <!-- Generator: Adobe Illustrator 30.1.0, SVG Export Plug-In . SVG Version: 2.1.1 Build 136)  -->
  <defs>
    <style>
      .st0 {
        fill: #007bff;
      }
    </style>
  </defs>
  <path class="st0" d="M79.58,83.18c-.56,0-1.12-.2-1.56-.61L2.74,13.02c-1.05-.97-2.74-.23-2.74,1.19v106.82c0,.9.73,1.63,1.63,1.63h155.89c.9,0,1.63-.73,1.63-1.63V14.22c0-1.43-1.7-2.17-2.74-1.2l-75.28,69.55c-.44.4-1,.61-1.56.61"/>
  <path class="st0" d="M150.19,0H8.97c-1.92,0-2.85,2.36-1.43,3.67l70.61,65.23c.8.75,2.06.75,2.87,0L151.62,3.67c1.41-1.31.49-3.67-1.43-3.67"/>
</svg>