<?xml version="1.0" encoding="UTF-8"?>
<svg id="Layer_1" xmlns="http://www.w3.org/2000/svg" version="1.1" viewBox="0 0 159.15 251.86">
  <!-- Generator: Adobe Illustrator 30.1.0, SVG Export Plug-In . SVG Version: 2.1.1 Build 136)  -->
  <defs>
    <style>
      .st0 {
        fill: #007bff;
      }
    </style>
  </defs>
  <path class="st0" d="M139.39,41.5c-12.46-20.51-33.17-32.97-56.8-34.17-2.61-.14-5.27-.14-7.88,0-23.63,1.2-44.34,13.66-56.8,34.18-12.73,20.95-14.28,46.71-4.13,68.94l61.9,132.29c.54,1.15,1.71,1.89,2.97,1.89s2.43-.74,2.97-1.89l61.91-132.32c10.14-22.21,8.59-47.97-4.14-68.92M78.65,111.77c-18.01,0-32.67-14.65-32.67-32.67s14.65-32.68,32.67-32.68,32.67,14.65,32.67,32.68-14.65,32.67-32.67,32.67"/>
</svg>