<?xml version="1.0" encoding="UTF-8"?>
<svg id="Layer_1" xmlns="http://www.w3.org/2000/svg" version="1.1" xmlns:xlink="http://www.w3.org/1999/xlink" viewBox="0 0 250 251.86">
  <!-- Generator: Adobe Illustrator 30.2.1, SVG Export Plug-In . SVG Version: 2.1.1 Build 1)  -->
  <defs>
    <style>
      .st0 {
        fill: #fff;
      }

      .st1 {
        fill: none;
      }

      .st2 {
        fill: #007bff;
      }

      .st3 {
        clip-path: url(#clippath);
      }
    </style>
    <clipPath id="clippath">
      <rect class="st1" y="1.86" width="250" height="250"/>
    </clipPath>
  </defs>
  <g class="st3">
    <path class="st2" d="M248.4,126.06c0,4.07-.2,8.13-.6,12.17-.4,4.05-.99,8.07-1.79,12.06-.79,3.99-1.78,7.93-2.96,11.82-1.18,3.89-2.55,7.72-4.11,11.48-1.56,3.76-3.29,7.43-5.21,11.02-1.92,3.59-4.01,7.07-6.27,10.45-2.26,3.38-4.68,6.65-7.26,9.79-2.58,3.14-5.31,6.15-8.19,9.03s-5.89,5.6-9.03,8.19c-3.14,2.58-6.41,5-9.79,7.26-3.38,2.26-6.87,4.35-10.45,6.27s-7.26,3.65-11.02,5.21c-3.76,1.56-7.58,2.93-11.48,4.11-3.89,1.18-7.83,2.17-11.82,2.96-3.99.79-8.01,1.39-12.06,1.79s-8.11.6-12.17.6-8.13-.2-12.17-.6-8.07-.99-12.06-1.79c-3.99-.79-7.93-1.78-11.82-2.96-3.89-1.18-7.72-2.55-11.48-4.11-3.76-1.56-7.43-3.29-11.02-5.21s-7.07-4.01-10.45-6.27c-3.38-2.26-6.65-4.68-9.79-7.26-3.14-2.58-6.15-5.31-9.03-8.19-2.88-2.88-5.6-5.89-8.19-9.03-2.58-3.14-5-6.41-7.26-9.79-2.26-3.38-4.35-6.87-6.27-10.45-1.92-3.59-3.65-7.26-5.21-11.02-1.56-3.76-2.93-7.58-4.11-11.48-1.18-3.89-2.17-7.83-2.96-11.82-.79-3.99-1.39-8.01-1.79-12.06-.4-4.05-.6-8.11-.6-12.17s.2-8.13.6-12.17c.4-4.05.99-8.07,1.79-12.06.79-3.99,1.78-7.93,2.96-11.82,1.18-3.89,2.55-7.72,4.11-11.48,1.56-3.76,3.29-7.43,5.21-11.02,1.92-3.59,4.01-7.07,6.27-10.45,2.26-3.38,4.68-6.65,7.26-9.79,2.58-3.14,5.31-6.15,8.19-9.03,2.88-2.88,5.89-5.6,9.03-8.19s6.41-5,9.79-7.26c3.38-2.26,6.87-4.35,10.45-6.27s7.26-3.65,11.02-5.21c3.76-1.56,7.58-2.93,11.48-4.11,3.89-1.18,7.83-2.17,11.82-2.96,3.99-.79,8.01-1.39,12.06-1.79s8.11-.6,12.17-.6,8.13.2,12.17.6,8.07,1,12.06,1.79c3.99.79,7.93,1.78,11.82,2.96,3.89,1.18,7.72,2.55,11.48,4.11,3.76,1.56,7.43,3.29,11.02,5.21s7.07,4.01,10.45,6.27c3.38,2.26,6.65,4.68,9.79,7.26s6.15,5.31,9.03,8.19c2.88,2.88,5.6,5.89,8.19,9.03,2.58,3.14,5,6.41,7.26,9.79,2.26,3.38,4.35,6.87,6.27,10.45,1.92,3.59,3.65,7.26,5.21,11.02,1.56,3.76,2.93,7.58,4.11,11.48,1.18,3.89,2.17,7.83,2.96,11.82.79,3.99,1.39,8.01,1.79,12.06.4,4.05.6,8.11.6,12.17Z"/>
    <path class="st0" d="M115.54,133.86c-20.51-19.64-17.33-28.88-17.33-28.88,8.38-8.09,7.22-18.77,7.22-18.77-4.33-5.78-8.67-11.55-13-17.33,0,0-5.78-9.53-14.73-4.33-23.97,14.15-16.46,38.42-16.46,38.42,0,.29,6.64,20.8,36.97,49.1,30.33,28.59,52.28,36.11,52.28,36.11,0,0,24.84,8.09,36.68-14.73,4.33-8.67-5.49-15.31-5.49-15.31-6.07-4.91-12.13-9.53-18.2-14.15,0,0-10.98-1.73-18.49,6.64,0,.29-9.24,2.89-29.46-16.75Z"/>
  </g>
</svg>