<?xml version="1.0" encoding="UTF-8"?>
<svg id="Layer_1" xmlns="http://www.w3.org/2000/svg" version="1.1" xmlns:xlink="http://www.w3.org/1999/xlink" viewBox="0 0 250 251.86">
  <!-- Generator: Adobe Illustrator 30.2.1, SVG Export Plug-In . SVG Version: 2.1.1 Build 1)  -->
  <defs>
    <style>
      .st0 {
        fill: none;
      }

      .st1 {
        fill: #007bff;
      }

      .st2 {
        clip-path: url(#clippath);
      }
    </style>
    <clipPath id="clippath">
      <rect class="st0" y="1.86" width="250" height="250"/>
    </clipPath>
  </defs>
  <g class="st2">
    <path class="st1" d="M107.2,141.16c-40.27-38.56-34.03-56.7-34.03-56.7,16.45-15.88,14.18-36.85,14.18-36.85-8.5-11.35-17.02-22.68-25.52-34.03,0,0-11.35-18.71-28.92-8.5C-14.16,32.86.59,80.51.59,80.51c0,.57,13.04,40.84,72.59,96.4,59.55,56.13,102.65,70.9,102.65,70.9,0,0,48.77,15.88,72.02-28.92,8.5-17.02-10.78-30.06-10.78-30.06-11.92-9.64-23.82-18.71-35.73-27.78,0,0-21.56-3.4-36.3,13.04,0,.57-18.14,5.67-57.84-32.89l.02-.04Z"/>
  </g>
</svg>