<?xml version="1.0" encoding="UTF-8"?>
<svg id="Layer_1" xmlns="http://www.w3.org/2000/svg" version="1.1" viewBox="0 0 211.2 288.48">
  <!-- Generator: Adobe Illustrator 30.1.0, SVG Export Plug-In . SVG Version: 2.1.1 Build 136)  -->
  <path d="M69.72,63.92c15.47,0,28.05-12.59,28.05-28.06s-12.58-28.05-28.05-28.05-28.06,12.58-28.06,28.05,12.58,28.06,28.06,28.06h0ZM69.72,16.23c10.83,0,19.63,8.81,19.63,19.63s-8.81,19.64-19.63,19.64-19.64-8.81-19.64-19.64,8.81-19.63,19.64-19.63ZM50.13,100.8c2.32,0,4.21,1.89,4.21,4.21v32.09c0,2.32-1.89,4.21-4.21,4.21s-4.21-1.89-4.21-4.21v-32.09c0-2.33,1.89-4.21,4.21-4.21ZM145.38,80.61c14.64,0,26.54-11.9,26.54-26.54s-11.9-26.54-26.54-26.54-26.54,11.9-26.54,26.54,11.9,26.54,26.54,26.54ZM145.38,35.95c9.99,0,18.12,8.13,18.12,18.12s-8.13,18.12-18.12,18.12-18.12-8.13-18.12-18.12,8.13-18.12,18.12-18.12ZM186.39,123.92c.33,2.3-1.26,4.44-3.56,4.77-.21.03-.41.04-.61.04-2.06,0-3.86-1.51-4.16-3.61-1.75-12.03-5.29-20.03-11.17-25.2-7.06-6.21-17.77-8.42-32.75-6.77-2.31.26-4.39-1.41-4.64-3.73-.25-2.31,1.41-4.39,3.73-4.64,41.91-4.6,50.42,20.13,53.18,39.14h0ZM144.15,213.98h-8.06c-2.32,0-4.21,1.89-4.21,4.21,0,19.55,15.91,35.46,35.47,35.46s35.46-15.91,35.46-35.46c0-2.32-1.89-4.21-4.21-4.21h-8.06l-17.49-56.62h12.98c.36,0,.7-.05,1.03-.13h0c.77-.2,1.46-.6,1.99-1.16.01-.01.02-.03.04-.04.08-.08.16-.17.23-.27.02-.02.03-.04.04-.06.07-.09.14-.18.2-.27.01-.02.02-.04.03-.05.06-.09.12-.2.17-.3.01-.02.02-.03.02-.05.05-.11.1-.21.15-.32,0-.02.01-.03.02-.05.04-.11.08-.22.11-.33,0-.03.01-.05.02-.07.03-.11.05-.21.07-.31.01-.05.02-.1.02-.15.01-.08.03-.16.03-.25.01-.1.01-.2.02-.3,0-.03,0-.06,0-.09h0c0-.67-.16-1.34-.49-1.97,0-.02-.01-.03-.02-.04,0-.01-.01-.02-.02-.03l-15.08-27.32c-1.12-2.03-3.69-2.77-5.72-1.65s-2.77,3.69-1.65,5.72l11.64,21.07h-36c-1.83-6.87-5.72-13.09-11.18-17.76-6.41-5.48-14.57-8.49-22.99-8.49s-16.66,3.04-23.08,8.57c-5.41,4.67-9.27,10.85-11.09,17.68h-39.67v-71.36h69.62v1.97c-9.76,1.96-17.13,10.59-17.13,20.91,0,11.77,9.57,21.34,21.34,21.34s21.34-9.57,21.34-21.34c0-10.32-7.37-18.95-17.12-20.91v-6.18c0-2.32-1.89-4.21-4.21-4.21H30.7c-2.32,0-4.21,1.89-4.21,4.21v79.78h0c0,2.32,1.89,4.21,4.21,4.21h13.72l-17.49,56.62h-8.06c-2.32,0-4.21,1.89-4.21,4.21,0,19.55,15.91,35.46,35.47,35.46s35.46-15.91,35.46-35.46c0-2.32-1.89-4.21-4.21-4.21h-8.06l-17.49-56.62h48.7v111.43h-54.4c-2.32,0-4.21,1.89-4.21,4.21s1.89,4.21,4.21,4.21h117.23c2.32,0,4.21-1.89,4.21-4.21s-1.89-4.21-4.21-4.21h-54.41v-111.43h48.69l-17.49,56.63ZM167.35,245.23c-13.48,0-24.69-9.92-26.72-22.83h53.44c-2.02,12.92-13.23,22.83-26.71,22.83h0ZM152.97,213.98l14.39-46.57,14.39,46.57h-28.77ZM121.66,100.46c0,7.12-5.79,12.92-12.92,12.92s-12.92-5.79-12.92-12.92,5.79-12.92,12.92-12.92,12.92,5.79,12.92,12.92ZM50.13,245.23c-13.48,0-24.69-9.92-26.72-22.83h53.44c-2.02,12.92-13.23,22.83-26.71,22.83ZM35.74,213.98l14.39-46.57,14.39,46.57h-28.77ZM108.74,131.1c11.62,0,21.62,7.25,25.37,17.83h-50.74c3.75-10.57,13.74-17.83,25.37-17.83h0Z"/>
</svg>