<?xml version="1.0" encoding="UTF-8"?>
<svg id="Layer_1" xmlns="http://www.w3.org/2000/svg" version="1.1" viewBox="0 0 512 512">
  <!-- Generator: Adobe Illustrator 30.1.0, SVG Export Plug-In . SVG Version: 2.1.1 Build 136)  -->
  <path d="M119.43,159.6c44,0,79.8-35.8,79.8-79.8S163.43,0,119.43,0,39.63,35.8,39.63,79.8s35.8,79.8,79.8,79.8Z"/>
  <path d="M255.98,372.4c-52.56,0-95.32,42.76-95.32,95.32v29.28c0,8.29,6.71,15,15,15h160.66c8.29,0,15-6.71,15-15v-29.27c0-52.57-42.77-95.34-95.35-95.34Z"/>
  <path d="M130.67,467.72c0-49.01,28.29-91.54,69.39-112.12-27.59-18.23-45.82-49.5-45.82-84.96,0-24.95,9.03-47.82,23.98-65.54-17.36-9.86-37.42-15.5-58.78-15.5-65.86,0-119.43,53.58-119.43,119.43v187.97c0,8.29,6.71,15,15,15h118.25c-1.66-4.7-2.58-9.74-2.58-15v-29.28Z"/>
  <path d="M256,342.4c39.57,0,71.77-32.2,71.77-71.77s-32.19-71.77-71.77-71.77-71.77,32.2-71.77,71.77,32.19,71.77,71.77,71.77Z"/>
  <path d="M392.57,159.6c44,0,79.8-35.8,79.8-79.8S436.57,0,392.57,0s-79.8,35.8-79.8,79.8,35.8,79.8,79.8,79.8Z"/>
  <path d="M392.57,189.6c-21.35,0-41.41,5.64-58.78,15.5,14.95,17.72,23.98,40.59,23.98,65.54,0,35.46-18.23,66.74-45.82,84.96,41.1,20.59,69.39,63.11,69.39,112.12v29.28c0,5.26-.91,10.3-2.58,15h118.25c8.29,0,15-6.71,15-15v-187.97c0-65.86-53.58-119.43-119.43-119.43Z"/>
</svg>