<?xml version="1.0" encoding="UTF-8"?>
<svg id="Layer_1" xmlns="http://www.w3.org/2000/svg" version="1.1" viewBox="0 0 190.84 163.46">
  <!-- Generator: Adobe Illustrator 30.1.0, SVG Export Plug-In . SVG Version: 2.1.1 Build 136)  -->
  <defs>
    <style>
      .st0 {
        fill: #231f20;
      }
    </style>
  </defs>
  <path class="st0" d="M149.71,123.2c-1.34.65-2.37,1.62-3.1,2.91-.73,1.3-1.01,2.68-.87,4.16l1.77,12.52-26.25-14.72c-.7-.35-1.43-.61-2.19-.78-7.48-1.46-14.25-4.5-20.31-9.13,3.53-2.25,6.81-4.83,9.84-7.72,3.03-2.9,5.74-6.06,8.14-9.5,2.4-3.43,4.44-7.07,6.13-10.91,1.68-3.84,2.97-7.8,3.88-11.89.9-4.09,1.39-8.23,1.48-12.42.08-4.19-.24-8.35-.98-12.47-.74-4.12-1.87-8.14-3.4-12.04-1.53-3.9-3.42-7.61-5.69-11.14,3.34-.71,6.71-1.07,10.12-1.06,2.78.01,5.54.26,8.28.73,2.74.48,5.42,1.18,8.04,2.11,2.62.93,5.15,2.07,7.58,3.43,2.43,1.35,4.73,2.9,6.9,4.65,2.17,1.74,4.18,3.65,6.02,5.73,1.85,2.08,3.51,4.3,4.98,6.66,1.47,2.36,2.74,4.83,3.79,7.4,1.06,2.57,1.89,5.22,2.5,7.93.61,2.71.99,5.46,1.14,8.24.15,2.78.06,5.55-.25,8.31-.32,2.76-.86,5.48-1.64,8.15-.78,2.67-1.77,5.26-2.98,7.76-1.21,2.5-2.62,4.89-4.24,7.15-1.61,2.27-3.41,4.38-5.38,6.35-1.97,1.96-4.09,3.75-6.36,5.36-2.27,1.61-4.66,3.01-7.17,4.22h.21ZM73.79,113.08c-.76.16-1.5.42-2.19.78l-26.25,15.07,1.49-12.52c.15-1.48-.14-2.87-.87-4.16-.73-1.3-1.76-2.27-3.1-2.91-1.75-.84-3.45-1.79-5.09-2.83-1.64-1.04-3.22-2.18-4.73-3.41-1.51-1.23-2.94-2.54-4.29-3.94-1.35-1.4-2.62-2.87-3.8-4.41-1.18-1.55-2.27-3.16-3.26-4.83-.99-1.67-1.88-3.4-2.67-5.18-.79-1.78-1.47-3.6-2.04-5.46-.57-1.86-1.03-3.75-1.38-5.66-.35-1.91-.59-3.84-.71-5.78-.12-1.94-.13-3.88-.03-5.83.11-1.94.32-3.87.66-5.79.33-1.92.78-3.81,1.33-5.67.56-1.86,1.22-3.69,1.99-5.48.77-1.79,1.64-3.52,2.62-5.2.97-1.68,2.04-3.3,3.21-4.86,1.17-1.56,2.42-3.04,3.76-4.45,1.34-1.41,2.76-2.74,4.26-3.98,1.5-1.24,3.06-2.39,4.69-3.45s3.32-2.02,5.07-2.88,3.53-1.61,5.37-2.26c1.83-.65,3.7-1.19,5.6-1.62,1.9-.43,3.81-.74,5.75-.95,1.93-.2,3.87-.29,5.82-.27,1.95.03,3.88.17,5.81.42,1.93.25,3.84.62,5.72,1.1,1.89.48,3.74,1.07,5.55,1.76,1.82.7,3.59,1.5,5.31,2.4,1.72.9,3.38,1.91,4.99,3.01s3.14,2.29,4.6,3.57c1.46,1.28,2.85,2.64,4.15,4.09,1.3,1.44,2.52,2.96,3.64,4.55,1.12,1.59,2.15,3.24,3.08,4.94.93,1.71,1.76,3.47,2.48,5.27.72,1.81,1.34,3.65,1.84,5.53.51,1.88.9,3.78,1.18,5.7.28,1.92.45,3.86.5,5.8.05,1.94,0,3.89-.18,5.82-.17,1.94-.46,3.86-.86,5.76-.4,1.9-.91,3.78-1.53,5.62-.62,1.84-1.35,3.64-2.18,5.4-.83,1.76-1.77,3.46-2.8,5.11-1.03,1.65-2.16,3.23-3.38,4.74-1.22,1.51-2.53,2.95-3.92,4.31-1.39,1.36-2.86,2.64-4.4,3.82-1.54,1.19-3.14,2.28-4.81,3.28-1.67,1-3.39,1.9-5.17,2.69-1.77.8-3.59,1.49-5.45,2.07-1.86.58-3.74,1.05-5.65,1.41l.28-.28ZM191.96,78.55c0-4.18-.41-8.32-1.22-12.42-.82-4.1-2.02-8.08-3.62-11.95-1.6-3.86-3.56-7.53-5.88-11.01-2.32-3.48-4.96-6.69-7.92-9.65-2.96-2.96-6.17-5.6-9.65-7.92-3.48-2.32-7.15-4.28-11.01-5.88-3.86-1.6-7.85-2.81-11.95-3.62-4.1-.82-8.24-1.22-12.42-1.22-6.86,0-13.53,1.11-20.02,3.33-1.62-1.58-3.31-3.08-5.09-4.48s-3.62-2.71-5.54-3.91c-1.91-1.21-3.89-2.31-5.92-3.3-2.03-1-4.11-1.88-6.24-2.66-2.13-.77-4.29-1.43-6.48-1.98-2.2-.54-4.42-.97-6.66-1.28s-4.49-.49-6.76-.56-4.52-.01-6.78.16c-2.26.17-4.5.47-6.72.88-2.23.41-4.42.94-6.59,1.59s-4.3,1.41-6.38,2.28-4.12,1.86-6.11,2.95c-1.98,1.09-3.9,2.28-5.76,3.58-1.86,1.3-3.64,2.69-5.34,4.17-1.71,1.49-3.33,3.06-4.87,4.72-1.54,1.66-2.99,3.39-4.34,5.21-1.35,1.81-2.61,3.69-3.76,5.64-1.15,1.95-2.2,3.95-3.14,6.01-.94,2.06-1.77,4.16-2.49,6.31s-1.32,4.33-1.8,6.54c-.48,2.21-.85,4.44-1.1,6.69C.13,58.99,0,61.24,0,63.51c0,2.26.11,4.52.34,6.77s.59,4.48,1.06,6.7c.47,2.21,1.06,4.4,1.77,6.55s1.52,4.26,2.45,6.32c.93,2.06,1.97,4.07,3.11,6.02,1.14,1.95,2.39,3.84,3.73,5.66,1.34,1.82,2.78,3.56,4.31,5.23,1.53,1.67,3.15,3.25,4.85,4.74,1.7,1.49,3.47,2.89,5.32,4.2,1.85,1.31,3.76,2.51,5.74,3.61l-3.11,21.93c-.24,1.38-.08,2.71.47,3.99.55,1.28,1.41,2.31,2.57,3.09,1.2.81,2.52,1.21,3.96,1.2,1.26,0,2.44-.3,3.54-.92l37.78-21.65c2.4-.52,4.76-1.18,7.08-1.98,8.61,8.21,18.73,13.59,30.35,16.13l37.64,21.44c1.1.62,2.28.93,3.54.92,1.44,0,2.76-.4,3.96-1.2,1.16-.78,2.02-1.8,2.57-3.09.55-1.28.71-2.61.47-3.99l-3.11-21.93c4.78-2.79,9.12-6.15,13.03-10.08,3.9-3.93,7.24-8.29,10.01-13.08,2.77-4.8,4.87-9.87,6.32-15.21,1.44-5.35,2.18-10.79,2.2-16.32Z"/>
  <g>
    <path class="st0" d="M53.98,64.4c0,1.41-.27,2.76-.81,4.06-.54,1.3-1.31,2.45-2.3,3.44-1,1-2.14,1.76-3.44,2.3-1.3.54-2.65.81-4.06.81-1.41,0-2.76-.27-4.06-.81-1.3-.54-2.45-1.31-3.44-2.3-1-1-1.76-2.14-2.3-3.44-.54-1.3-.81-2.65-.81-4.06,0-1.41.27-2.76.81-4.06.54-1.3,1.31-2.45,2.3-3.44,1-1,2.14-1.76,3.44-2.3s2.65-.81,4.06-.81,2.76.27,4.06.81,2.45,1.31,3.44,2.3c1,1,1.76,2.14,2.3,3.44.54,1.3.81,2.65.81,4.06Z"/>
    <path class="st0" d="M75.21,64.4c0,1.41-.27,2.76-.81,4.06-.54,1.3-1.31,2.45-2.3,3.44-1,1-2.14,1.76-3.44,2.3-1.3.54-2.65.81-4.06.81-1.41,0-2.76-.27-4.06-.81-1.3-.54-2.45-1.31-3.44-2.3-1-1-1.76-2.14-2.3-3.44-.54-1.3-.81-2.65-.81-4.06,0-1.41.27-2.76.81-4.06.54-1.3,1.31-2.45,2.3-3.44,1-1,2.14-1.76,3.44-2.3s2.65-.81,4.06-.81,2.76.27,4.06.81,2.45,1.31,3.44,2.3c1,1,1.76,2.14,2.3,3.44.54,1.3.81,2.65.81,4.06Z"/>
    <path class="st0" d="M96.43,64.4c0,1.41-.27,2.76-.81,4.06-.54,1.3-1.31,2.45-2.3,3.44-1,1-2.14,1.76-3.44,2.3-1.3.54-2.65.81-4.06.81-1.41,0-2.76-.27-4.06-.81-1.3-.54-2.45-1.31-3.44-2.3-1-1-1.76-2.14-2.3-3.44-.54-1.3-.81-2.65-.81-4.06,0-1.41.27-2.76.81-4.06.54-1.3,1.31-2.45,2.3-3.44s2.14-1.76,3.44-2.3c1.3-.54,2.65-.81,4.06-.81s2.76.27,4.06.81,2.45,1.31,3.44,2.3c1,1,1.76,2.14,2.3,3.44.54,1.3.81,2.65.81,4.06Z"/>
  </g>
</svg>