<?xml version="1.0" encoding="UTF-8"?>
<svg id="Layer_1" xmlns="http://www.w3.org/2000/svg" version="1.1" viewBox="0 0 298.52 251.86">
  <!-- Generator: Adobe Illustrator 30.1.0, SVG Export Plug-In . SVG Version: 2.1.1 Build 136)  -->
  <defs>
    <style>
      .st0 {
        fill-rule: evenodd;
      }
    </style>
  </defs>
  <path class="st0" d="M287.87,76.26c-.28-2.41-1.51-4.55-3.44-6.03l-6.94-5.38c-3.96-3.06-9.65-2.34-12.73,1.62l-45.77,59.07V27.62c0-7.56-6.14-13.71-13.71-13.71h-98.59c-1.09,0-2.14.44-2.95,1.21l-29.32,29.33c-.77.78-1.23,1.84-1.23,2.95v57.54c-4.49.8-8.77,2.94-12.24,6.4l-44.33,44.32c-4.49,4.52-4.49,11.88,0,16.4,4.14,4.13,10.66,4.47,15.19,1.04v59.72h-12.28c-2.28,0-4.17,1.87-4.17,4.16s1.89,4.16,4.17,4.16h115.67c2.31,0,4.17-1.86,4.17-4.16s-1.86-4.16-4.17-4.16h-12.28v-15.84h82.35c7.58,0,13.71-6.15,13.71-13.72v-33.74l67.06-86.54c1.51-1.91,2.14-4.29,1.82-6.7ZM201.83,169.66l2.17-11.21,58.92-76.04,8.14,6.31-58.92,76.03-10.31,4.91ZM102.53,28.12v9.73c0,2.97-2.42,5.39-5.4,5.39h-9.72l15.12-15.12ZM22.49,166.16c1.26,1.28,3.37,1.28,4.63,0l43.39-43.39c3.78-3.78,9.9-3.78,13.68,0l43.39,43.39c1.3,1.28,3.37,1.28,4.63,0,1.26-1.27,1.26-3.35,0-4.62l-44.44-44.33c-5.79-5.76-15.19-5.76-20.94.02l-44.33,44.32c-1.26,1.27-1.26,3.35,0,4.62ZM40.1,232.81h74.5v-67.88l-36.27-36.28c-.51-.51-1.41-.54-1.93,0l-36.3,36.28v67.88ZM205.27,208.65c2.98,0,5.4-2.42,5.4-5.39v-28.57l-12.73,6.04c-3.03,1.45-6.53-1.19-5.86-4.55l3.93-20.28c.14-.64.42-1.24.81-1.76l13.85-17.86V27.62c0-2.97-2.42-5.39-5.4-5.39h-94.42v15.61c0,7.56-6.14,13.72-13.71,13.72h-15.61v53.4c4.42.82,8.7,2.93,12.1,6.36l44.47,44.33c4.52,4.52,4.52,11.88,0,16.4-4.1,4.11-10.57,4.51-15.19,1.04v35.56h82.35ZM279.48,77.87l-3.33,4.27-8.1-6.31,3.3-4.27c.25-.32.74-.38,1.05-.13l6.94,5.38c.32.24.37.73.14,1.06ZM95.9,174.89v-9.59c0-2.3-1.86-4.16-4.17-4.16h-28.76c-2.31,0-4.17,1.86-4.17,4.16v9.59c0,5.8,2.7,10.98,6.87,14.38-4.17,3.4-6.87,8.59-6.87,14.38v9.59c0,2.3,1.86,4.16,4.17,4.16h28.76c2.31,0,4.17-1.86,4.17-4.16v-9.59c0-5.8-2.67-10.98-6.87-14.38,4.21-3.4,6.87-8.59,6.87-14.38ZM87.59,203.66v5.43h-20.45v-5.43c0-5.64,4.56-10.22,10.21-10.22s10.24,4.58,10.24,10.22ZM67.14,174.89v-5.43h20.45v5.43c0,5.64-4.6,10.22-10.24,10.22-5.65,0-10.21-4.59-10.21-10.22ZM195.59,185.68c1.61,1.65,1.58,4.28-.07,5.89-3.54,3.43-4.8,4.17-6.14,4.44-1.93.41-5.58.29-8.35-4.98-.86-1.65-1.82-4.23-2.39-6.01-3.06,4.23-6.74,11.8-13.08,11.07-4.64-.54-6.79-5.37-6.73-9.83.05-4.5-.37-8.19-1.33-10.61-1.52.09-3.73,1.44-6.49,5.03l-10.8,14.11c-1.4,1.84-4.03,2.17-5.82.77-1.82-1.39-2.17-4.01-.77-5.83l10.8-14.11c3.16-4.11,6.28-6.62,9.54-7.68,5.4-1.74,9.82.33,11.57,5.39,1.3,3.73,1.61,7.71,1.61,13.51,3.67-3.91,7.31-14.05,13.99-11.94,4.41,1.39,5.09,7.86,7.16,12.03.39-.35.84-.79,1.4-1.34,1.65-1.61,4.28-1.57,5.89.08ZM187.87,128.43h-51.66c-2.28,0-4.14-1.87-4.14-4.17s1.86-4.16,4.14-4.16h51.66c2.31,0,4.17,1.86,4.17,4.16s-1.86,4.17-4.17,4.17ZM100.11,64.95c0-2.3,1.89-4.16,4.17-4.16h83.58c2.31,0,4.17,1.87,4.17,4.16s-1.86,4.16-4.17,4.16h-83.58c-2.28,0-4.17-1.86-4.17-4.16ZM187.87,98.77h-83.58c-2.28,0-4.17-1.86-4.17-4.16s1.89-4.16,4.17-4.16h83.58c2.31,0,4.17,1.87,4.17,4.16,0,2.3-1.86,4.16-4.17,4.16Z"/>
</svg>