<?xml version="1.0" encoding="UTF-8"?>
<svg id="Layer_1" xmlns="http://www.w3.org/2000/svg" version="1.1" xmlns:xlink="http://www.w3.org/1999/xlink" viewBox="0 0 238.03 243.41">
  <!-- Generator: Adobe Illustrator 30.1.0, SVG Export Plug-In . SVG Version: 2.1.1 Build 136)  -->
  <defs>
    <style>
      .st0 {
        fill: none;
      }

      .st1 {
        fill: url(#linear-gradient);
      }

      .st2 {
        clip-path: url(#clippath);
      }
    </style>
    <clipPath id="clippath">
      <path class="st0" d="M97.7,121.71c0-12.26,9.97-22.24,22.23-22.24s22.23,9.97,22.23,22.24-9.97,22.23-22.23,22.23-22.23-9.97-22.23-22.23M85.22,121.71c0,19.13,15.57,34.7,34.71,34.7s34.71-15.57,34.71-34.7-15.57-34.71-34.71-34.71-34.71,15.57-34.71,34.71M148.4,84.66c0,4.57,3.7,8.26,8.26,8.26s8.26-3.7,8.26-8.26-3.7-8.26-8.26-8.26-8.26,3.7-8.26,8.26M62.68,148.73v-55.88c0-16.06,13.02-29.07,29.08-29.07h55.87c16.06,0,29.07,13.02,29.07,29.07v55.88c0,16.06-13.01,29.08-29.07,29.08h-55.87c-16.06,0-29.08-13.02-29.08-29.08M91.76,50.53c-23.38,0-42.33,18.95-42.33,42.33v55.88c0,23.38,18.95,42.33,42.33,42.33h55.87c23.38,0,42.34-18.95,42.34-42.33v-55.88c0-23.38-18.95-42.33-42.34-42.33h-55.87ZM17.97,121.7c0-55.72,45.33-101.05,101.04-101.05s101.05,45.33,101.05,101.05-45.33,101.05-101.05,101.05S17.97,177.42,17.97,121.7M7.36,121.7c0,61.56,50.09,111.66,111.65,111.66s111.66-50.09,111.66-111.66S180.58,10.05,119.01,10.05,7.36,60.14,7.36,121.7"/>
    </clipPath>
    <linearGradient id="linear-gradient" x1="-456.1" y1="1254.43" x2="-451.98" y2="1254.43" gradientTransform="translate(40298.49 110954.64) scale(88.35 -88.35)" gradientUnits="userSpaceOnUse">
      <stop offset="0" stop-color="#fbe18a"/>
      <stop offset="0" stop-color="#fbe18a"/>
      <stop offset=".21" stop-color="#fcbb45"/>
      <stop offset=".38" stop-color="#f75274"/>
      <stop offset=".52" stop-color="#d53692"/>
      <stop offset=".74" stop-color="#8f39ce"/>
      <stop offset="1" stop-color="#5b4fe9"/>
    </linearGradient>
  </defs>
  <g class="st2">
    <rect class="st1" x="-38.38" y="-35.7" width="314.8" height="314.8" transform="translate(-50.5 106.2) rotate(-40.41)"/>
  </g>
</svg>