<?xml version="1.0" encoding="UTF-8"?>
<svg id="Layer_1" xmlns="http://www.w3.org/2000/svg" version="1.1" viewBox="0 0 238.03 243.41">
  <!-- Generator: Adobe Illustrator 30.1.0, SVG Export Plug-In . SVG Version: 2.1.1 Build 136)  -->
  <defs>
    <style>
      .st0 {
        fill: #007ab9;
      }
    </style>
  </defs>
  <path class="st0" d="M119.18,234.42c-61.48,0-111.49-50.02-111.49-111.49S57.7,11.44,119.18,11.44s111.49,50.02,111.49,111.49-50.01,111.49-111.49,111.49M119.18,23.44c-54.86,0-99.49,44.63-99.49,99.49s44.63,99.49,99.49,99.49,99.49-44.63,99.49-99.49S174.04,23.44,119.18,23.44"/>
  <path class="st0" d="M182.21,131.42v41.63c0,1.03-.83,1.86-1.86,1.86h-21.49c-1.03,0-1.86-.83-1.86-1.86v-38.71c0-10.19-3.64-17.15-12.77-17.15-6.97,0-11.11,4.69-12.93,9.22-.66,1.62-.83,3.88-.83,6.15v40.49c0,1.03-.83,1.86-1.86,1.86h-21.48c-1.03,0-1.87-.83-1.86-1.86.05-10.31.26-60.33.05-72.09-.02-1.04.82-1.88,1.86-1.88h21.44c1.03,0,1.87.83,1.87,1.86v8.88c-.05.09-.12.17-.17.25h.17v-.25c3.35-5.16,9.33-12.53,22.72-12.53,16.59,0,29.03,10.84,29.03,34.13M67.95,174.91h21.48c1.03,0,1.86-.83,1.86-1.86v-72.12c0-1.03-.83-1.86-1.86-1.86h-21.48c-1.03,0-1.86.83-1.86,1.86v72.12c0,1.03.83,1.86,1.86,1.86"/>
  <path class="st0" d="M91.44,75.93c0,7.46-6.04,13.5-13.5,13.5s-13.5-6.04-13.5-13.5,6.04-13.5,13.5-13.5,13.5,6.04,13.5,13.5"/>
</svg>