<?xml version="1.0" encoding="UTF-8"?>
<svg id="Layer_1" xmlns="http://www.w3.org/2000/svg" version="1.1" viewBox="0 0 238.03 243.41">
  <!-- Generator: Adobe Illustrator 30.1.0, SVG Export Plug-In . SVG Version: 2.1.1 Build 136)  -->
  <defs>
    <style>
      .st0 {
        fill-rule: evenodd;
      }

      .st0, .st1 {
        fill: #3c5a99;
      }
    </style>
  </defs>
  <path class="st1" d="M119.02,233.36c-61.57,0-111.66-50.09-111.66-111.65S57.45,10.05,119.02,10.05s111.65,50.09,111.65,111.66-50.09,111.65-111.65,111.65M119.02,22.04c-54.95,0-99.66,44.71-99.66,99.66s44.71,99.66,99.66,99.66,99.66-44.71,99.66-99.66S173.97,22.04,119.02,22.04"/>
  <path class="st0" d="M101.51,122.23v64.71c0,.93.75,1.69,1.69,1.69h24.03c.93,0,1.69-.75,1.69-1.69v-65.77h17.42c.88,0,1.6-.67,1.68-1.54l1.68-19.82c.08-.98-.69-1.82-1.68-1.82h-19.1v-14.06c0-3.29,2.67-5.96,5.97-5.96h13.43c.93,0,1.69-.76,1.69-1.69v-19.82c0-.93-.76-1.69-1.69-1.69h-22.69c-13.32,0-24.11,10.79-24.11,24.11v19.11h-12.02c-.93,0-1.69.75-1.69,1.69v19.81c0,.93.75,1.69,1.69,1.69h12.02v1.06Z"/>
</svg>