<?xml version="1.0" encoding="UTF-8"?>
<svg id="Layer_1" xmlns="http://www.w3.org/2000/svg" version="1.1" viewBox="0 0 283.5 253.59">
  <!-- Generator: Adobe Illustrator 30.1.0, SVG Export Plug-In . SVG Version: 2.1.1 Build 136)  -->
  <defs>
    <style>
      .st0 {
        fill: #231f20;
      }
    </style>
  </defs>
  <path class="st0" d="M184.94,238.09c1.64,0,2.98-1.33,2.98-2.98,0-.51-.13-.98-.35-1.4-7.12-16.24-.63-32.4.04-33.98.2-.4.31-.85.31-1.33,0-1.64-1.33-2.98-2.98-2.98h-19.53c.33.93.51,1.94.51,2.98v23.26c0,4.93-4.01,8.93-8.93,8.93-2.1,0-4.05-.75-5.69-2.05l-5.61-4.45-2.14,1.67h0s-3.76,2.94-3.76,2.94c-3.89,3.03-9.5,2.33-12.54-1.55-1.22-1.57-1.89-3.5-1.89-5.49v-23.26c0-1.04.18-2.04.51-2.98H37.32c-5.96,0-11.39,2.4-15.33,6.25-3.96,3.87-6.41,9.21-6.41,15.08s2.45,11.22,6.4,15.08c3.95,3.86,9.37,6.25,15.33,6.25h147.63ZM38.72,189.48c-.22-1.02-.34-2.08-.34-3.17,0-8.29,6.78-15.08,15.08-15.08h121.42c1.65,0,2.98,1.34,2.98,2.98v15.27H38.72ZM159.97,198.4c0-1.64-1.34-2.98-2.98-2.98h-22.68c-1.64,0-2.98,1.33-2.98,2.98v23.26c0,.64.2,1.29.63,1.83,1.01,1.3,2.88,1.53,4.18.52h0s9.59-7.48,9.59-7.48l9.28,7.36c.53.47,1.22.76,1.99.76,1.64,0,2.98-1.34,2.98-2.98v-23.26ZM158.85,18.48c2.5-2.47,5.78-3.71,9.06-3.71s6.6,1.25,9.11,3.76l35,35c2.51,2.51,3.76,5.81,3.76,9.11s-1.25,6.59-3.76,9.09h0s-.06.07-.06.07c-2.5,2.47-5.77,3.7-9.04,3.7-.4,0-.79-.01-1.19-.05.03.4.05.79.05,1.19,0,3.27-1.24,6.55-3.7,9.04l-.06.06h0c-2.51,2.51-5.8,3.76-9.09,3.76s-6.6-1.26-9.11-3.76l-34.98-34.98-.02-.02h0c-2.51-2.52-3.76-5.82-3.76-9.11s1.24-6.56,3.71-9.05l.05-.05c2.51-2.51,5.81-3.76,9.11-3.76.4,0,.79.01,1.19.05-.04-.4-.05-.79-.05-1.19,0-3.3,1.25-6.6,3.76-9.11l.05-.05ZM94.01,83.34h-.01s.05-.05.05-.05c2.5-2.47,5.78-3.71,9.05-3.71v.02c3.3,0,6.6,1.25,9.1,3.75h0l.02.02,34.98,34.98c.06.06.11.12.17.18,2.39,2.49,3.59,5.71,3.59,8.92s-1.25,6.6-3.76,9.1c-.06.06-.12.12-.19.17-2.49,2.39-5.71,3.59-8.92,3.59-.4,0-.79-.02-1.19-.05.04.4.05.79.05,1.19,0,3.3-1.25,6.6-3.76,9.1h0c-2.51,2.51-5.81,3.76-9.11,3.76s-6.6-1.25-9.11-3.76l-35-35c-2.51-2.51-3.76-5.81-3.76-9.11s1.25-6.6,3.76-9.11,5.81-3.76,9.11-3.76c.4,0,.79.02,1.19.05-.04-.39-.05-.79-.05-1.19,0-3.29,1.26-6.59,3.77-9.1h0ZM154.18,112.08l92.1,92.1.03.03h0c2.67,2.67,6.17,4,9.68,4s6.98-1.32,9.64-3.96l.04-.05h0c2.67-2.67,4-6.18,4-9.69s-1.33-7.02-4-9.69l-92.13-92.13,2.4-2.4c-.12-.11-.24-.23-.36-.35l-34.96-34.95-.41-.4-24.16,24.16.4.41,34.95,34.95c.12.12.23.24.35.37l2.41-2.41Z"/>
</svg>