<?xml version="1.0" encoding="UTF-8"?>
<svg id="Layer_1" xmlns="http://www.w3.org/2000/svg" version="1.1" viewBox="0 0 316.83 370.17">
  <!-- Generator: Adobe Illustrator 30.1.0, SVG Export Plug-In . SVG Version: 2.1.1 Build 136)  -->
  <defs>
    <style>
      .st0 {
        fill-rule: evenodd;
      }
    </style>
  </defs>
  <path class="st0" d="M235.83,240.79c.81.16,1.62.24,2.43.24s1.62-.08,2.43-.24h60.38c2.81,0,5.07-2.26,5.07-5.06v-71.46c0-30.02-19.92-55.47-47.25-63.83,6.4-5.5,10.49-13.66,10.49-22.76,0-16.53-13.43-29.98-29.98-29.98s-29.98,13.45-29.98,29.98c0,9.11,4.09,17.27,10.53,22.78-.55.17-1.11.35-1.66.53-9.81-11.36-22.86-19.83-37.66-24.02,8.1-6.29,13.31-16.12,13.31-27.15,0-18.93-15.39-34.37-34.37-34.37s-34.37,15.44-34.37,34.37c0,11.03,5.25,20.85,13.35,27.15-9.72,2.74-18.64,7.33-26.44,13.36,9.22-19.78-5.22-42.63-27.16-42.63-16.5,0-29.98,13.45-29.98,29.98,0,9.1,4.09,17.25,10.53,22.76-6.99,2.16-13.65,5.49-19.79,9.97-17.48,12.73-27.51,32.36-27.51,53.86v71.46c0,2.75,2.26,5.06,5.07,5.06h115.87c-1.52,1.34-6.64,7.04-8.36,8.88-4.76,5.13-4.44,13.22.68,17.97l30.58,28.32h-39.36c-7.93,0-14.84,4.63-19.02,12.69l-4.18,8.04h-1.79c-11.47,0-21.32,3.39-27.85,9.54l-15.22,14.44c-3.37,3.16-1.05,8.73,3.45,8.73h203.03c4.53,0,6.79-5.56,3.45-8.73l-15.27-14.44c-6.48-6.15-16.38-9.54-27.8-9.54h-1.83l-4.14-8.04c-4.18-8.06-11.09-12.69-19.02-12.69h-3.62l1.75-1.86c4.35-4.67,4.51-11.98.38-16.83l7.29-7.85,78.51,72.79c5.12,4.77,13.2,4.47,17.95-.67l4.01-4.3c4.73-5.14,4.43-13.2-.68-17.97l-78.55-72.8,5.29-5.69h6.99ZM162.39,246.87l25.29,23.43,35.65-38.47-25.25-23.44-35.69,38.48ZM247.38,218.48l-37.83-35.05c-1.02-.96-2.69-.9-3.67.14l-7.33,7.93c-.98,1.03-.9,2.71.13,3.67l37.83,35.05c.21.21.43.35.68.45h2.18c.26-.13.55-.31.81-.58l7.33-7.93c.98-1.03.9-2.71-.13-3.67ZM239.41,57.82c-10.96,0-19.87,8.91-19.87,19.86s8.91,19.86,19.87,19.86,19.87-8.9,19.87-19.86-8.91-19.86-19.87-19.86ZM239.41,107.65c-4.99,0-9.89.66-14.63,1.95,7.85,12.12,12.41,26.58,12.41,42.06v43.57l17.06,15.82c5.16,4.77,5.46,12.83.68,17.97l-1.49,1.63h42.6v-66.4c0-31.22-25.42-56.61-56.63-56.61ZM171.39,169.04l-11.81-62.58-11.77,62.58,11.77,14.42,11.81-14.42ZM135.36,49.82c0-13.37,10.87-24.26,24.22-24.26s24.27,10.89,24.27,24.26-10.87,24.25-24.27,24.25-24.22-10.88-24.22-24.25ZM65.08,77.68c0,10.55,8.27,19.2,18.68,19.81.81-.01,1.58-.01,2.35,0,10.45-.6,18.72-9.26,18.72-19.82s-8.91-19.86-19.87-19.86c-10.96,0-19.87,8.91-19.87,19.86ZM28.36,164.26v66.4h53.65v-79c0-15.94,4.82-30.76,13.09-43.1-33.83-6.29-66.74,19.8-66.74,55.7ZM92.11,151.67c0-35.13,26.99-64.07,61.32-67.2l-16.03,85.01c-.26,1.46.13,2.98,1.07,4.14l17.19,21.03c2.03,2.47,5.83,2.49,7.85,0l17.23-21.03c.94-1.16,1.32-2.67,1.02-4.14l-15.99-85.01c34.33,3.13,61.32,32.06,61.32,67.2v34.19l-10.66-9.85c-5.12-4.77-13.18-4.46-17.95.67l-7.33,7.93c-4.39,4.75-4.48,11.99-.43,16.83l-27.08,29.22h-71.51v-78.99ZM242.35,333.57c-4.61-4.37-12.03-6.77-20.85-6.77h-123.8c-8.87,0-16.25,2.4-20.85,6.77l-6.06,5.71h177.61l-6.06-5.71ZM206.53,313.29l1.75,3.4h-97.36l1.75-3.4c1.66-3.29,4.82-7.21,10.02-7.21h73.82c5.2,0,8.32,3.92,10.02,7.21ZM177.83,295.95c-.43-.01-1.07-.15-1.66-.68l-37.78-35.05c-1.06-.98-1.13-2.61-.17-3.67l7.38-7.93c.95-1.05,2.63-1.09,3.67-.14l37.78,35.06c1.06.98,1.13,2.6.17,3.67l-7.38,7.93c-.67.74-1.46.82-2,.82ZM295.19,326.7c1.02.95,1.11,2.63.17,3.66l-4.01,4.29c-.94,1.04-2.64,1.1-3.67.14l-78.51-72.79,7.51-8.1,78.51,72.8Z"/>
</svg>