<?xml version="1.0" encoding="UTF-8"?>
<svg id="Layer_1" xmlns="http://www.w3.org/2000/svg" version="1.1" viewBox="0 0 316.83 288.48">
  <!-- Generator: Adobe Illustrator 30.1.0, SVG Export Plug-In . SVG Version: 2.1.1 Build 136)  -->
  <path d="M72.94,134.2c1.25,0,2.49.12,3.72.37,1.23.24,2.42.61,3.58,1.09,1.16.48,2.26,1.07,3.3,1.76,1.04.7,2,1.49,2.89,2.37.89.89,1.68,1.85,2.37,2.89.7,1.04,1.28,2.14,1.76,3.3.48,1.16.84,2.35,1.09,3.58.24,1.23.37,2.47.37,3.72,0,1.25-.12,2.49-.37,3.72-.24,1.23-.61,2.42-1.09,3.58-.48,1.16-1.07,2.26-1.76,3.3-.7,1.04-1.49,2-2.37,2.89-.89.89-1.85,1.68-2.89,2.37-1.04.7-2.14,1.28-3.3,1.76-1.16.48-2.35.84-3.58,1.09-1.23.24-2.47.37-3.72.37-1.25,0-2.49-.12-3.72-.37-1.23-.24-2.42-.61-3.58-1.09-1.16-.48-2.26-1.07-3.3-1.76-1.04-.7-2-1.49-2.89-2.37-.89-.89-1.68-1.85-2.37-2.89-.7-1.04-1.28-2.14-1.76-3.3-.48-1.16-.84-2.35-1.09-3.58-.24-1.23-.37-2.47-.37-3.72,0-1.25.12-2.49.37-3.72.24-1.23.61-2.42,1.09-3.58.48-1.16,1.07-2.26,1.76-3.3.7-1.04,1.49-2,2.37-2.89.89-.89,1.85-1.68,2.89-2.37,1.04-.7,2.14-1.28,3.3-1.76,1.16-.48,2.35-.84,3.58-1.09,1.23-.24,2.47-.37,3.72-.37ZM72.94,181.87c1.88,0,3.74-.18,5.58-.55,1.84-.37,3.63-.91,5.37-1.63,1.74-.72,3.38-1.6,4.94-2.64,1.56-1.04,3.01-2.23,4.33-3.56,1.33-1.33,2.51-2.77,3.56-4.33,1.04-1.56,1.92-3.21,2.64-4.94.72-1.74,1.26-3.52,1.63-5.37.37-1.84.55-3.7.55-5.58,0-1.88-.18-3.74-.55-5.58-.37-1.84-.91-3.63-1.63-5.37-.72-1.74-1.6-3.38-2.64-4.94-1.04-1.56-2.23-3.01-3.56-4.33s-2.77-2.51-4.33-3.56c-1.56-1.04-3.21-1.92-4.94-2.64-1.74-.72-3.52-1.26-5.37-1.63-1.84-.37-3.7-.55-5.58-.55s-3.74.18-5.58.55c-1.84.37-3.63.91-5.37,1.63-1.74.72-3.38,1.6-4.94,2.64-1.56,1.04-3.01,2.23-4.33,3.56-1.33,1.33-2.51,2.77-3.56,4.33-1.04,1.56-1.92,3.21-2.64,4.94-.72,1.74-1.26,3.52-1.63,5.37-.37,1.84-.55,3.7-.55,5.58,0,1.88.18,3.74.55,5.58.37,1.84.91,3.63,1.63,5.37.72,1.74,1.6,3.38,2.64,4.94,1.04,1.56,2.23,3.01,3.56,4.33,1.33,1.33,2.77,2.51,4.33,3.56,1.56,1.04,3.21,1.92,4.94,2.64,1.74.72,3.52,1.26,5.37,1.63,1.84.37,3.7.55,5.58.55Z"/>
  <path d="M244.56,134.2c1.25,0,2.49.12,3.72.37,1.23.24,2.42.61,3.58,1.09,1.16.48,2.26,1.07,3.3,1.76,1.04.7,2,1.49,2.89,2.37.89.89,1.68,1.85,2.37,2.89.7,1.04,1.28,2.14,1.76,3.3.48,1.16.84,2.35,1.09,3.58.24,1.23.37,2.47.37,3.72,0,1.25-.12,2.49-.37,3.72-.24,1.23-.61,2.42-1.09,3.58-.48,1.16-1.07,2.26-1.76,3.3-.7,1.04-1.49,2-2.37,2.89-.89.89-1.85,1.68-2.89,2.37-1.04.7-2.14,1.28-3.3,1.76-1.16.48-2.35.84-3.58,1.09-1.23.24-2.47.37-3.72.37-1.25,0-2.49-.12-3.72-.37-1.23-.24-2.42-.61-3.58-1.09-1.16-.48-2.26-1.07-3.3-1.76-1.04-.7-2-1.49-2.89-2.37-.89-.89-1.68-1.85-2.37-2.89-.7-1.04-1.28-2.14-1.76-3.3-.48-1.16-.84-2.35-1.09-3.58-.24-1.23-.37-2.47-.37-3.72,0-1.25.12-2.49.37-3.72.24-1.23.61-2.42,1.09-3.58.48-1.16,1.07-2.26,1.76-3.3.7-1.04,1.49-2,2.37-2.89.89-.89,1.85-1.68,2.89-2.37,1.04-.7,2.14-1.28,3.3-1.76,1.16-.48,2.35-.84,3.58-1.09,1.23-.24,2.47-.37,3.72-.37ZM244.56,181.87c1.88,0,3.74-.18,5.58-.55,1.84-.37,3.63-.91,5.37-1.63s3.38-1.6,4.94-2.64c1.56-1.04,3.01-2.23,4.33-3.56,1.33-1.33,2.51-2.77,3.56-4.33,1.04-1.56,1.92-3.21,2.64-4.94.72-1.74,1.26-3.52,1.63-5.37.37-1.84.55-3.7.55-5.58,0-1.88-.18-3.74-.55-5.58-.37-1.84-.91-3.63-1.63-5.37-.72-1.74-1.6-3.38-2.64-4.94-1.04-1.56-2.23-3.01-3.56-4.33-1.33-1.33-2.77-2.51-4.33-3.56-1.56-1.04-3.21-1.92-4.94-2.64s-3.52-1.26-5.37-1.63c-1.84-.37-3.7-.55-5.58-.55s-3.74.18-5.58.55c-1.84.37-3.63.91-5.37,1.63-1.74.72-3.38,1.6-4.94,2.64-1.56,1.04-3.01,2.23-4.33,3.56-1.33,1.33-2.51,2.77-3.56,4.33-1.04,1.56-1.92,3.21-2.64,4.94-.72,1.74-1.26,3.52-1.63,5.37-.37,1.84-.55,3.7-.55,5.58,0,1.88.18,3.74.55,5.58.37,1.84.91,3.63,1.63,5.37.72,1.74,1.6,3.38,2.64,4.94,1.04,1.56,2.23,3.01,3.56,4.33,1.33,1.33,2.77,2.51,4.33,3.56,1.56,1.04,3.21,1.92,4.94,2.64,1.74.72,3.52,1.26,5.37,1.63,1.84.37,3.7.55,5.58.55Z"/>
  <path d="M287.46,258.14c0,5.15-6.53,9.53-14.3,9.53h-42.9c-1.48,0-2.92-.22-4.33-.67-1.41-.45-2.72-1.1-3.93-1.95-1.21-.85-2.26-1.87-3.15-3.05-.89-1.18-1.59-2.47-2.08-3.86h51.63c.63,0,1.24-.12,1.82-.36.58-.24,1.1-.59,1.55-1.03.45-.45.79-.96,1.03-1.55.24-.58.36-1.19.36-1.82v-19.07c0-.63-.12-1.24-.36-1.82-.24-.58-.59-1.1-1.03-1.55-.45-.45-.96-.79-1.55-1.03-.58-.24-1.19-.36-1.82-.36s-1.24.12-1.82.36c-.58.24-1.1.59-1.55,1.03-.45.45-.79.96-1.03,1.55-.24.58-.36,1.19-.36,1.82v14.3h-10.58l-8.49-34.51c-.27-1.09-.85-1.97-1.74-2.65-.89-.68-1.9-1-3.02-.97h-37.28c.94-2.23,2.2-4.27,3.77-6.11,1.57-1.84,3.39-3.4,5.45-4.69s4.26-2.22,6.61-2.82c2.35-.6,4.73-.83,7.15-.68h38.14c13.16,0,23.83,8.53,23.83,19.07v42.9ZM191.07,267.68l-11.92-47.67h56.92l7.15,28.6h-32.03c-.63,0-1.24.12-1.82.36-.58.24-1.1.59-1.55,1.03s-.79.96-1.03,1.55c-.24.58-.36,1.19-.36,1.82-.03,5.31,1.56,10.07,4.77,14.3h-20.12ZM126.43,267.68h-20.12c3.21-4.23,4.8-8.99,4.77-14.3,0-.63-.12-1.24-.36-1.82-.24-.58-.59-1.1-1.03-1.55-.45-.45-.96-.79-1.55-1.03-.58-.24-1.19-.36-1.82-.36h-32.03l7.15-28.6h56.92l-11.92,47.67ZM87.25,267.68h-42.9c-7.77,0-14.3-4.39-14.3-9.53v-42.9c0-10.54,10.68-19.07,23.83-19.07h38.14c2.42-.14,4.8.09,7.15.68,2.35.6,4.55,1.54,6.61,2.82,2.06,1.28,3.87,2.84,5.45,4.69,1.57,1.84,2.83,3.88,3.77,6.11h-37.28c-1.12-.03-2.13.29-3.02.97-.89.68-1.47,1.56-1.74,2.65l-8.49,34.51h-10.58v-14.3c0-.63-.12-1.24-.36-1.82-.24-.58-.59-1.1-1.03-1.55-.45-.45-.96-.79-1.55-1.03-.58-.24-1.19-.36-1.82-.36s-1.24.12-1.82.36c-.58.24-1.1.59-1.55,1.03-.45.45-.79.96-1.03,1.55-.24.58-.36,1.19-.36,1.82v19.07c0,.63.12,1.24.36,1.82.24.58.59,1.1,1.03,1.55.45.45.96.79,1.55,1.03.58.24,1.19.36,1.82.36h51.63c-.49,1.39-1.19,2.68-2.08,3.86-.89,1.18-1.94,2.2-3.15,3.05-1.21.85-2.52,1.5-3.93,1.95s-2.85.67-4.33.67ZM306.53,267.68h-12.87c2.18-2.8,3.29-5.98,3.34-9.53v-42.9c0-15.78-14.97-28.6-33.37-28.6h-38.14c-16.49,0-30.22,10.34-32.84,23.83h-19.59c-1.55,0-2.81.6-3.77,1.81-.95,1.23-1.24,2.59-.86,4.1l12.82,51.29h-45l12.97-51.29c.38-1.51.1-2.87-.86-4.1-1-1.26-2.3-1.87-3.91-1.81h-19.59c-2.62-13.49-16.35-23.83-32.84-23.83h-38.14c-18.4,0-33.37,12.82-33.37,28.6v42.9c.05,3.55,1.16,6.73,3.34,9.53h-12.87c-.63,0-1.24.12-1.82.36-.58.24-1.1.59-1.55,1.03-.45.45-.79.96-1.03,1.55-.24.58-.36,1.19-.36,1.82s.12,1.24.36,1.82c.24.58.59,1.1,1.03,1.55.45.45.96.79,1.55,1.03.58.24,1.19.36,1.82.36h295.55c.63,0,1.24-.12,1.82-.36.58-.24,1.1-.59,1.55-1.03.45-.45.79-.96,1.03-1.55.24-.58.36-1.19.36-1.82,0-.63-.12-1.24-.36-1.82-.24-.58-.59-1.1-1.03-1.55-.45-.45-.96-.79-1.55-1.03-.58-.24-1.19-.36-1.82-.36Z"/>
  <path d="M194.69,102.31c-.9.44-1.6,1.09-2.09,1.96-.49.87-.68,1.81-.58,2.8l1.19,8.44-17.69-9.92c-.47-.24-.96-.41-1.48-.52-5.04-.99-9.6-3.03-13.68-6.15,2.38-1.52,4.59-3.25,6.63-5.2,2.04-1.95,3.87-4.09,5.48-6.4,1.62-2.31,2.99-4.76,4.13-7.35,1.13-2.59,2-5.26,2.61-8.01.61-2.76.94-5.55.99-8.37.06-2.82-.16-5.62-.66-8.4-.5-2.78-1.26-5.48-2.29-8.11-1.03-2.63-2.31-5.13-3.83-7.51,2.25-.48,4.52-.72,6.82-.71,1.87,0,3.73.17,5.58.49,1.85.32,3.65.8,5.42,1.42,1.77.63,3.47,1.4,5.11,2.31,1.64.91,3.19,1.96,4.65,3.13,1.46,1.17,2.81,2.46,4.06,3.86,1.24,1.4,2.36,2.9,3.35,4.49.99,1.59,1.84,3.25,2.56,4.99.71,1.73,1.27,3.51,1.69,5.34.41,1.83.67,3.68.77,5.55.1,1.87.04,3.74-.17,5.6-.21,1.86-.58,3.69-1.11,5.49-.52,1.8-1.19,3.54-2.01,5.23s-1.77,3.29-2.86,4.82c-1.09,1.53-2.29,2.95-3.62,4.27-1.33,1.32-2.76,2.53-4.29,3.61-1.53,1.08-3.14,2.03-4.83,2.84h.14ZM143.54,95.49c-.52.11-1.01.29-1.48.52l-17.69,10.15,1-8.44c.1-1-.1-1.93-.58-2.8-.49-.87-1.18-1.53-2.09-1.96-1.18-.57-2.32-1.2-3.43-1.91-1.11-.7-2.17-1.47-3.18-2.3-1.02-.83-1.98-1.71-2.89-2.65-.91-.94-1.77-1.93-2.56-2.97-.8-1.04-1.53-2.13-2.19-3.25-.67-1.13-1.27-2.29-1.8-3.49-.53-1.2-.99-2.42-1.37-3.68-.39-1.25-.7-2.52-.93-3.81-.24-1.29-.4-2.59-.48-3.9-.08-1.31-.09-2.62-.02-3.92.07-1.31.22-2.61.44-3.9.22-1.29.52-2.56.9-3.82.37-1.26.82-2.49,1.34-3.69.52-1.2,1.11-2.37,1.76-3.51.66-1.13,1.38-2.23,2.16-3.27.79-1.05,1.63-2.05,2.53-3,.9-.95,1.86-1.84,2.87-2.68,1.01-.84,2.06-1.61,3.16-2.32,1.1-.71,2.24-1.36,3.41-1.94,1.18-.58,2.38-1.09,3.62-1.52,1.24-.44,2.49-.8,3.77-1.09,1.28-.29,2.57-.5,3.87-.64,1.3-.14,2.61-.2,3.92-.18,1.31.02,2.62.11,3.91.28,1.3.17,2.58.42,3.85.74,1.27.32,2.52.72,3.74,1.19,1.22.47,2.42,1.01,3.58,1.62,1.16.61,2.28,1.29,3.36,2.03s2.11,1.54,3.1,2.41c.99.86,1.92,1.78,2.8,2.75.88.97,1.7,1.99,2.45,3.06.76,1.07,1.45,2.18,2.08,3.33.63,1.15,1.18,2.33,1.67,3.55.49,1.22.9,2.46,1.24,3.72.34,1.27.61,2.55.8,3.84.19,1.3.3,2.6.34,3.91.04,1.31,0,2.62-.12,3.92-.12,1.31-.31,2.6-.58,3.88-.27,1.28-.61,2.54-1.03,3.79-.42,1.24-.91,2.45-1.47,3.64-.56,1.18-1.19,2.33-1.89,3.44-.7,1.11-1.46,2.17-2.28,3.2-.82,1.02-1.7,1.99-2.64,2.91-.94.92-1.92,1.78-2.96,2.58-1.04.8-2.12,1.54-3.24,2.21-1.12.67-2.28,1.28-3.48,1.81-1.2.54-2.42,1-3.67,1.39-1.25.39-2.52.71-3.81.95l.19-.19ZM223.15,72.23c0-2.82-.27-5.61-.82-8.37-.55-2.76-1.36-5.45-2.44-8.05-1.08-2.6-2.4-5.08-3.96-7.42-1.57-2.34-3.34-4.51-5.34-6.5-1.99-1.99-4.16-3.77-6.5-5.34-2.34-1.57-4.81-2.89-7.42-3.96-2.6-1.08-5.29-1.89-8.05-2.44-2.76-.55-5.55-.82-8.37-.82-4.62,0-9.12.75-13.49,2.24-1.09-1.07-2.23-2.07-3.43-3.02s-2.44-1.82-3.73-2.64c-1.29-.81-2.62-1.55-3.99-2.23-1.37-.67-2.77-1.27-4.2-1.79-1.43-.52-2.89-.97-4.37-1.33-1.48-.37-2.98-.65-4.49-.86-1.51-.21-3.03-.33-4.55-.38-1.52-.05-3.05,0-4.57.11-1.52.12-3.03.31-4.53.59-1.5.28-2.98.64-4.44,1.07s-2.89.95-4.3,1.54c-1.41.59-2.78,1.25-4.11,1.99-1.34.73-2.63,1.54-3.88,2.41-1.25.87-2.45,1.81-3.6,2.81-1.15,1-2.24,2.06-3.28,3.18-1.04,1.12-2.01,2.29-2.93,3.51-.91,1.22-1.76,2.49-2.54,3.8-.78,1.31-1.48,2.66-2.12,4.05-.63,1.39-1.19,2.8-1.68,4.25s-.89,2.91-1.21,4.4c-.33,1.49-.57,2.99-.74,4.51-.17,1.52-.25,3.04-.26,4.56,0,1.52.07,3.05.23,4.56.16,1.52.4,3.02.71,4.51.32,1.49.71,2.96,1.19,4.41.48,1.45,1.03,2.87,1.65,4.26.63,1.39,1.32,2.74,2.1,4.06.77,1.32,1.61,2.59,2.51,3.81.91,1.23,1.87,2.4,2.91,3.52,1.03,1.12,2.12,2.19,3.26,3.2,1.14,1.01,2.34,1.95,3.59,2.83,1.25.88,2.53,1.69,3.87,2.43l-2.1,14.78c-.16.93-.05,1.82.32,2.69.37.86.95,1.56,1.73,2.08.81.54,1.7.81,2.67.81.85,0,1.64-.2,2.38-.62l25.46-14.59c1.62-.35,3.21-.79,4.77-1.33,5.8,5.53,12.62,9.16,20.45,10.87l25.36,14.44c.74.42,1.53.63,2.38.62.97,0,1.86-.27,2.67-.81.78-.52,1.36-1.22,1.73-2.08.37-.86.48-1.76.32-2.69l-2.1-14.78c3.22-1.88,6.15-4.14,8.78-6.79,2.63-2.64,4.88-5.58,6.74-8.81,1.86-3.23,3.28-6.65,4.26-10.25.97-3.6,1.47-7.27,1.49-11Z"/>
  <path d="M130.2,62.7c0,.95-.18,1.86-.54,2.74-.36.88-.88,1.65-1.55,2.32-.67.67-1.44,1.19-2.32,1.55-.88.36-1.79.54-2.74.54-.95,0-1.86-.18-2.74-.54-.88-.36-1.65-.88-2.32-1.55-.67-.67-1.19-1.44-1.55-2.32-.36-.88-.54-1.79-.54-2.74,0-.95.18-1.86.54-2.74.36-.88.88-1.65,1.55-2.32.67-.67,1.44-1.19,2.32-1.55.88-.36,1.79-.54,2.74-.54s1.86.18,2.74.54c.88.36,1.65.88,2.32,1.55.67.67,1.19,1.44,1.55,2.32.36.88.54,1.79.54,2.74Z"/>
  <path d="M144.5,62.7c0,.95-.18,1.86-.54,2.74-.36.88-.88,1.65-1.55,2.32-.67.67-1.44,1.19-2.32,1.55-.88.36-1.79.54-2.74.54-.95,0-1.86-.18-2.74-.54-.88-.36-1.65-.88-2.32-1.55-.67-.67-1.19-1.44-1.55-2.32-.36-.88-.54-1.79-.54-2.74,0-.95.18-1.86.54-2.74.36-.88.88-1.65,1.55-2.32.67-.67,1.44-1.19,2.32-1.55.88-.36,1.79-.54,2.74-.54s1.86.18,2.74.54c.88.36,1.65.88,2.32,1.55.67.67,1.19,1.44,1.55,2.32.36.88.54,1.79.54,2.74Z"/>
  <path d="M158.8,62.7c0,.95-.18,1.86-.54,2.74-.36.88-.88,1.65-1.55,2.32-.67.67-1.44,1.19-2.32,1.55-.88.36-1.79.54-2.74.54-.95,0-1.86-.18-2.74-.54-.88-.36-1.65-.88-2.32-1.55-.67-.67-1.19-1.44-1.55-2.32-.36-.88-.54-1.79-.54-2.74,0-.95.18-1.86.54-2.74.36-.88.88-1.65,1.55-2.32s1.44-1.19,2.32-1.55c.88-.36,1.79-.54,2.74-.54s1.86.18,2.74.54c.88.36,1.65.88,2.32,1.55.67.67,1.19,1.44,1.55,2.32.36.88.54,1.79.54,2.74Z"/>
</svg>