<svg xmlns="http://www.w3.org/2000/svg" height="512pt" version="1.1" viewBox="-46 0 512 512" width="512pt">
<g id="surface1">
<path d="M 210 262.210938 L 210 361 L 240 361 L 240 316 C 240 307.710938 246.710938 301 255 301 C 263.289062 301 270 307.710938 270 316 L 270 361 L 300 361 L 300 262.210938 L 255 217.210938 Z M 270 256 C 270 264.285156 263.285156 271 255 271 C 246.714844 271 240 264.285156 240 256 C 240 247.714844 246.714844 241 255 241 C 263.285156 241 270 247.714844 270 256 Z M 270 256 " style=" stroke:none;fill-rule:nonzero;fill:rgb(0%,0%,0%);fill-opacity:1;" />
<path d="M 405 91 C 413.289062 91 420 84.289062 420 76 C 420 67.710938 413.289062 61 405 61 L 60 61 L 60 15 C 60 6.710938 53.289062 0 45 0 L 15 0 C 6.710938 0 0 6.710938 0 15 L 0 497 C 0 505.289062 6.710938 512 15 512 L 45 512 C 53.289062 512 60 505.289062 60 497 L 60 91 L 150 91 L 150 121 L 135 121 C 110.1875 121 90 141.1875 90 166 L 90 406 C 90 430.8125 110.1875 451 135 451 L 375 451 C 399.8125 451 420 430.8125 420 406 L 420 166 C 420 141.1875 399.8125 121 375 121 L 360 121 L 360 91 Z M 180 91 L 330 91 L 330 121 L 180 121 Z M 355.605469 296.605469 C 349.746094 302.464844 340.253906 302.464844 334.394531 296.605469 L 330 292.210938 L 330 376 C 330 384.289062 323.289062 391 315 391 L 195 391 C 186.710938 391 180 384.289062 180 376 L 180 292.210938 L 175.605469 296.605469 C 169.746094 302.464844 160.253906 302.464844 154.394531 296.605469 C 148.535156 290.746094 148.535156 281.253906 154.394531 275.394531 C 157.800781 271.988281 249.765625 180.023438 244.394531 185.394531 C 250.253906 179.535156 259.746094 179.535156 265.605469 185.394531 L 355.605469 275.394531 C 361.464844 281.253906 361.464844 290.746094 355.605469 296.605469 Z M 355.605469 296.605469 " style=" stroke:none;fill-rule:nonzero;fill:rgb(0%,0%,0%);fill-opacity:1;" />
</g>
</svg>