<?xml version="1.0" encoding="UTF-8"?>
<svg id="Layer_1" xmlns="http://www.w3.org/2000/svg" version="1.1" viewBox="0 0 250.63 288.48">
  <!-- Generator: Adobe Illustrator 30.1.0, SVG Export Plug-In . SVG Version: 2.1.1 Build 136)  -->
  <path d="M175.53,231.17h-90.02c-2.35,0-4.15,1.8-4.15,4.15s1.8,4.15,4.15,4.15h90.02c2.35,0,4.15-1.8,4.15-4.15s-1.93-4.15-4.15-4.15Z"/>
  <path d="M132,119.31l38.27,33.23h-76.69l38.41-33.23ZM165.37,207.4l-16.58-.14v-23.63c0-2.35-1.93-4.15-4.21-4.21h-24.94c-2.35,0-3.87,1.93-3.87,4.21v23.28l-18.1-.14v-46.01h67.71v46.63ZM140.64,207.19l-16.58-.14v-19.34h16.58v19.48ZM82.47,160.77h6.91v50.09c.07,2.21,1.93,4.08,4.21,4.08l75.72.69c1.11,0,2.21-.41,2.97-1.17.83-.76,1.31-1.8,1.31-2.9v-50.71h7.74c1.73,0,3.32-1.17,3.87-2.76.55-1.66.14-3.45-1.17-4.63l-49.4-42.83c-1.59-1.31-3.87-1.31-5.39,0l-49.47,42.83c-1.31,1.17-1.73,2.97-1.17,4.63.69,1.59,2.14,2.69,3.87,2.69Z"/>
  <path d="M51.1,73.72c0-7.05,5.04-13.2,11.95-14.51-.69,1.8,0,3.87,1.59,4.91,1.59.97,3.73.83,5.11-.55l4.7-4.63h6.29l-29.78,29.29v-14.51h.14ZM100.09,33.92l3.04,3.18-13.82,13.61h-6.29l17.06-16.79ZM116.8,35.16l10.71,10.85-92.78,91.13-10.71-10.85L111.21,40.62c.41-.28.76-.55,1.11-.97l4.49-4.49ZM129.93,28.05l5.11,5.11-4.42,4.21-5.04-5.11,4.35-4.21ZM162.33,58.93v38.48c0,7.53,6.08,13.68,13.61,13.75h37.03v140.39c-.07,8.22-6.7,14.85-14.92,14.85H65.82c-8.15,0-14.78-6.63-14.78-14.85v-118.83L126.2,58.86h36.13v.07ZM170.56,65.01l36.62,37.86h-31.23c-2.97-.07-5.39-2.49-5.39-5.46v-32.4ZM20.08,133.96l6.91,7.05-10.22,3.04,3.32-10.09ZM10.34,154.55c.41,0,.83-.07,1.17-.14l24.32-7.39c.69-.14,1.24-.55,1.73-.97l5.25-5.04v110.61c0,12.71,10.29,23.08,22.94,23.14h132.23c12.78,0,23.14-10.36,23.21-23.14V106.88c0-1.11-.48-2.14-1.24-2.9l-50.57-52.09c-.83-.83-1.93-1.24-2.97-1.24h-31.85l1.66-1.59c1.59-1.59,1.66-4.15.14-5.73l7.39-7.12c.83-.76,1.24-1.8,1.24-2.9s-.41-2.14-1.24-2.97l-10.92-11.05c-1.59-1.59-4.21-1.66-5.8,0l-7.19,7.12c-1.59-1.59-4.15-1.59-5.8,0l-4.97,4.91-3.32-3.39c-1.52-1.59-3.59-2.49-5.73-2.49-1.93-.07-3.73.69-5.04,2l-23.84,23.28h-5.39c-12.78,0-23.08,10.36-22.94,23.14v22.52l-27.43,26.94c-.48.48-.83,1.11-1.11,1.66l-7.88,24.18c-.41,1.24-.14,2.63.55,3.73.83.97,2.07,1.66,3.39,1.66Z"/>
</svg>